# xmcd CD database file
#
# Track frame offsets:
#	150
#	16274
#	33975
#	59016
#	75573
#	89190
#	108862
#	132683
#
# Disc length: 1963 seconds
#
# Revision: 0
# Processed by: cddbd v1.5.2PL0 Copyright (c) Steve Scherf et al.
# Submitted via: CDex 1.51
#
DISCID=6907a908
DTITLE=Mike Cross and Groovy Gravy - Bottom of the Blues
DYEAR=2006
DGENRE=Blues
TTITLE0=Buzzard Luck
TTITLE1=Hear That Guitar RIng
TTITLE2=Bottom of the Blues
TTITLE3=Love Line
TTITLE4=Too Fat to Fly
TTITLE5=Good Day for the Blues
TTITLE6=Cocaïne and Whiskey
TTITLE7=Can't Have the Sunshine
EXTD=YEAR: 2006
EXTT0=
EXTT1=
EXTT2=
EXTT3=
EXTT4=
EXTT5=
EXTT6=
EXTT7=
PLAYORDER=
